<svg xmlns="http://www.w3.org/2000/svg" width="640" height="680" style="background:#1a1a2e">
<line x1="0" y1="0" x2="0" y2="680" stroke="#ffffff08" stroke-width="0.5"/>
<line x1="40" y1="0" x2="40" y2="680" stroke="#ffffff08" stroke-width="0.5"/>
<line x1="80" y1="0" x2="80" y2="680" stroke="#ffffff08" stroke-width="0.5"/>
<line x1="120" y1="0" x2="120" y2="680" stroke="#ffffff08" stroke-width="0.5"/>
<line x1="160" y1="0" x2="160" y2="680" stroke="#ffffff08" stroke-width="0.5"/>
<line x1="200" y1="0" x2="200" y2="680" stroke="#ffffff08" stroke-width="0.5"/>
<line x1="240" y1="0" x2="240" y2="680" stroke="#ffffff08" stroke-width="0.5"/>
<line x1="280" y1="0" x2="280" y2="680" stroke="#ffffff08" stroke-width="0.5"/>
<line x1="320" y1="0" x2="320" y2="680" stroke="#ffffff08" stroke-width="0.5"/>
<line x1="360" y1="0" x2="360" y2="680" stroke="#ffffff08" stroke-width="0.5"/>
<line x1="400" y1="0" x2="400" y2="680" stroke="#ffffff08" stroke-width="0.5"/>
<line x1="440" y1="0" x2="440" y2="680" stroke="#ffffff08" stroke-width="0.5"/>
<line x1="480" y1="0" x2="480" y2="680" stroke="#ffffff08" stroke-width="0.5"/>
<line x1="520" y1="0" x2="520" y2="680" stroke="#ffffff08" stroke-width="0.5"/>
<line x1="560" y1="0" x2="560" y2="680" stroke="#ffffff08" stroke-width="0.5"/>
<line x1="600" y1="0" x2="600" y2="680" stroke="#ffffff08" stroke-width="0.5"/>
<line x1="0" y1="0" x2="640" y2="0" stroke="#ffffff08" stroke-width="0.5"/>
<line x1="0" y1="40" x2="640" y2="40" stroke="#ffffff08" stroke-width="0.5"/>
<line x1="0" y1="80" x2="640" y2="80" stroke="#ffffff08" stroke-width="0.5"/>
<line x1="0" y1="120" x2="640" y2="120" stroke="#ffffff08" stroke-width="0.5"/>
<line x1="0" y1="160" x2="640" y2="160" stroke="#ffffff08" stroke-width="0.5"/>
<line x1="0" y1="200" x2="640" y2="200" stroke="#ffffff08" stroke-width="0.5"/>
<line x1="0" y1="240" x2="640" y2="240" stroke="#ffffff08" stroke-width="0.5"/>
<line x1="0" y1="280" x2="640" y2="280" stroke="#ffffff08" stroke-width="0.5"/>
<line x1="0" y1="320" x2="640" y2="320" stroke="#ffffff08" stroke-width="0.5"/>
<line x1="0" y1="360" x2="640" y2="360" stroke="#ffffff08" stroke-width="0.5"/>
<line x1="0" y1="400" x2="640" y2="400" stroke="#ffffff08" stroke-width="0.5"/>
<line x1="0" y1="440" x2="640" y2="440" stroke="#ffffff08" stroke-width="0.5"/>
<line x1="0" y1="480" x2="640" y2="480" stroke="#ffffff08" stroke-width="0.5"/>
<line x1="0" y1="520" x2="640" y2="520" stroke="#ffffff08" stroke-width="0.5"/>
<line x1="0" y1="560" x2="640" y2="560" stroke="#ffffff08" stroke-width="0.5"/>
<line x1="0" y1="600" x2="640" y2="600" stroke="#ffffff08" stroke-width="0.5"/>
<line x1="0" y1="640" x2="640" y2="640" stroke="#ffffff08" stroke-width="0.5"/>
<text x="320.0" y="28.0" font-size="15" text-anchor="middle" fill="#e0e0ff" font-weight="bold" font-family="monospace">FlyGimbal — Frame Top View</text>
<text x="320.0" y="46.0" font-size="10" text-anchor="middle" fill="#8888bb" font-weight="normal" font-family="monospace">Bottom Plate v0.1  |  Ø400mm  |  3mm PETG/CF</text>
<circle cx="320.0" cy="320.0" r="300.0" fill="#2a2a4a" stroke="#5566cc" stroke-width="2" opacity="1"/>
<circle cx="320.0" cy="320.0" r="232.5" fill="#1a1a2e" stroke="#5566cc" stroke-width="1.5" opacity="1"/>
<line x1="378.3" y1="261.7" x2="484.4" y2="155.6" stroke="#3a4a8a" stroke-width="24.0" stroke-linecap="round"/>
<line x1="261.7" y1="261.7" x2="155.6" y2="155.6" stroke="#3a4a8a" stroke-width="24.0" stroke-linecap="round"/>
<line x1="261.7" y1="378.3" x2="155.6" y2="484.4" stroke="#3a4a8a" stroke-width="24.0" stroke-linecap="round"/>
<line x1="378.3" y1="378.3" x2="484.4" y2="484.4" stroke="#3a4a8a" stroke-width="24.0" stroke-linecap="round"/>
<circle cx="320.0" cy="320.0" r="82.5" fill="#2a2a4a" stroke="#5566cc" stroke-width="1.5" opacity="1"/>
<circle cx="320.0" cy="320.0" r="84.0" fill="#0d0d1a" stroke="#cc4444" stroke-width="1.5" opacity="1"/>
<text x="320.0" y="328.0" font-size="9" text-anchor="middle" fill="#cc6666" font-weight="normal" font-family="monospace">⌀112mm</text>
<text x="320.0" y="314.0" font-size="9" text-anchor="middle" fill="#cc6666" font-weight="normal" font-family="monospace">FLYWHEEL</text>
<text x="320.0" y="340.0" font-size="9" text-anchor="middle" fill="#cc6666" font-weight="normal" font-family="monospace">BAY</text>
<rect x="575.0" y="297.5" width="45.0" height="45.0" fill="#3a6a3a" stroke="#44cc44" stroke-width="1.5" transform="rotate(0 597.5 320.0)"/>
<circle cx="585.5" cy="332.0" r="2.4" fill="#0d0d1a" stroke="#ffcc44" stroke-width="1" opacity="1"/>
<circle cx="585.5" cy="308.0" r="2.4" fill="#0d0d1a" stroke="#ffcc44" stroke-width="1" opacity="1"/>
<circle cx="609.5" cy="332.0" r="2.4" fill="#0d0d1a" stroke="#ffcc44" stroke-width="1" opacity="1"/>
<circle cx="609.5" cy="308.0" r="2.4" fill="#0d0d1a" stroke="#ffcc44" stroke-width="1" opacity="1"/>
<circle cx="597.5" cy="320.0" r="4" fill="#44cc44"/>
<text x="630.5" y="320.0" font-size="9" text-anchor="middle" fill="#44ff88" font-weight="normal" font-family="monospace">M1 [G]</text>
<rect x="297.5" y="20.0" width="45.0" height="45.0" fill="#3a3a6a" stroke="#6677cc" stroke-width="1.5" transform="rotate(-90 320.0 42.5)"/>
<circle cx="332.0" cy="54.5" r="2.4" fill="#0d0d1a" stroke="#ffcc44" stroke-width="1" opacity="1"/>
<circle cx="308.0" cy="54.5" r="2.4" fill="#0d0d1a" stroke="#ffcc44" stroke-width="1" opacity="1"/>
<circle cx="332.0" cy="30.5" r="2.4" fill="#0d0d1a" stroke="#ffcc44" stroke-width="1" opacity="1"/>
<circle cx="308.0" cy="30.5" r="2.4" fill="#0d0d1a" stroke="#ffcc44" stroke-width="1" opacity="1"/>
<circle cx="320.0" cy="42.5" r="4" fill="#6677cc"/>
<text x="320.0" y="9.5" font-size="9" text-anchor="middle" fill="#aaaaff" font-weight="normal" font-family="monospace">M2</text>
<rect x="20.0" y="297.5" width="45.0" height="45.0" fill="#3a6a3a" stroke="#44cc44" stroke-width="1.5" transform="rotate(-180 42.5 320.0)"/>
<circle cx="54.5" cy="308.0" r="2.4" fill="#0d0d1a" stroke="#ffcc44" stroke-width="1" opacity="1"/>
<circle cx="54.5" cy="332.0" r="2.4" fill="#0d0d1a" stroke="#ffcc44" stroke-width="1" opacity="1"/>
<circle cx="30.5" cy="308.0" r="2.4" fill="#0d0d1a" stroke="#ffcc44" stroke-width="1" opacity="1"/>
<circle cx="30.5" cy="332.0" r="2.4" fill="#0d0d1a" stroke="#ffcc44" stroke-width="1" opacity="1"/>
<circle cx="42.5" cy="320.0" r="4" fill="#44cc44"/>
<text x="9.5" y="320.0" font-size="9" text-anchor="middle" fill="#44ff88" font-weight="normal" font-family="monospace">M3 [G]</text>
<rect x="297.5" y="575.0" width="45.0" height="45.0" fill="#3a3a6a" stroke="#6677cc" stroke-width="1.5" transform="rotate(-270 320.0 597.5)"/>
<circle cx="308.0" cy="585.5" r="2.4" fill="#0d0d1a" stroke="#ffcc44" stroke-width="1" opacity="1"/>
<circle cx="332.0" cy="585.5" r="2.4" fill="#0d0d1a" stroke="#ffcc44" stroke-width="1" opacity="1"/>
<circle cx="308.0" cy="609.5" r="2.4" fill="#0d0d1a" stroke="#ffcc44" stroke-width="1" opacity="1"/>
<circle cx="332.0" cy="609.5" r="2.4" fill="#0d0d1a" stroke="#ffcc44" stroke-width="1" opacity="1"/>
<circle cx="320.0" cy="597.5" r="4" fill="#6677cc"/>
<text x="320.0" y="630.5" font-size="9" text-anchor="middle" fill="#aaaaff" font-weight="normal" font-family="monospace">M4</text>
<circle cx="383.6" cy="256.4" r="5.2" fill="#0d0d1a" stroke="#ffaa44" stroke-width="1.2" opacity="1"/>
<circle cx="383.6" cy="256.4" r="1.5" fill="#ffaa44"/>
<circle cx="256.4" cy="256.4" r="5.2" fill="#0d0d1a" stroke="#ffaa44" stroke-width="1.2" opacity="1"/>
<circle cx="256.4" cy="256.4" r="1.5" fill="#ffaa44"/>
<circle cx="256.4" cy="383.6" r="5.2" fill="#0d0d1a" stroke="#ffaa44" stroke-width="1.2" opacity="1"/>
<circle cx="256.4" cy="383.6" r="1.5" fill="#ffaa44"/>
<circle cx="383.6" cy="383.6" r="5.2" fill="#0d0d1a" stroke="#ffaa44" stroke-width="1.2" opacity="1"/>
<circle cx="383.6" cy="383.6" r="1.5" fill="#ffaa44"/>
<circle cx="297.1" cy="342.9" r="3.8" fill="#0d0d1a" stroke="#aa44ff" stroke-width="1" opacity="1"/>
<circle cx="297.1" cy="297.1" r="3.8" fill="#0d0d1a" stroke="#aa44ff" stroke-width="1" opacity="1"/>
<circle cx="342.9" cy="342.9" r="3.8" fill="#0d0d1a" stroke="#aa44ff" stroke-width="1" opacity="1"/>
<circle cx="342.9" cy="297.1" r="3.8" fill="#0d0d1a" stroke="#aa44ff" stroke-width="1" opacity="1"/>
<rect x="291.1" y="291.1" width="57.8" height="57.8" fill="none" stroke="#aa44ff" stroke-width="0.8" stroke-dasharray="4,3"/>
<text x="354.9" y="285.1" font-size="8" text-anchor="start" fill="#aa44ff" font-weight="normal" font-family="monospace">FC/ESC</text>
<line x1="20.0" y1="632.0" x2="620.0" y2="632.0" stroke="#88aaff" stroke-width="0.8" stroke-dasharray="3,2"/>
<text x="320.0" y="627.0" font-size="8" text-anchor="middle" fill="#88aaff" font-weight="normal" font-family="monospace">⌀400mm</text>
<line x1="320.0" y1="312.0" x2="597.5" y2="312.0" stroke="#88ffaa" stroke-width="0.8" stroke-dasharray="3,2"/>
<text x="458.8" y="307.0" font-size="8" text-anchor="middle" fill="#88ffaa" font-weight="normal" font-family="monospace">R185mm</text>
<rect x="18" y="565" width="180" height="105" rx="6" fill="#0d0d1a" stroke="#333366" stroke-width="1"/>
<text x="108.0" y="581.0" font-size="9" text-anchor="middle" fill="#8888cc" font-weight="bold" font-family="monospace">LEGEND</text>
<rect x="26" y="586" width="10" height="8" fill="#5566cc" rx="1"/>
<text x="40.0" y="593.0" font-size="8" text-anchor="start" fill="#cccccc" font-weight="normal" font-family="monospace">Frame / Ring</text>
<rect x="26" y="597" width="10" height="8" fill="#44cc44" rx="1"/>
<text x="40.0" y="604.0" font-size="8" text-anchor="start" fill="#cccccc" font-weight="normal" font-family="monospace">Motor pad [G] = gimbaled</text>
<rect x="26" y="608" width="10" height="8" fill="#6677cc" rx="1"/>
<text x="40.0" y="615.0" font-size="8" text-anchor="start" fill="#cccccc" font-weight="normal" font-family="monospace">Motor pad [fixed]</text>
<rect x="26" y="619" width="10" height="8" fill="#ffcc44" rx="1"/>
<text x="40.0" y="626.0" font-size="8" text-anchor="start" fill="#cccccc" font-weight="normal" font-family="monospace">Motor bolt hole M3</text>
<rect x="26" y="630" width="10" height="8" fill="#ffaa44" rx="1"/>
<text x="40.0" y="637.0" font-size="8" text-anchor="start" fill="#cccccc" font-weight="normal" font-family="monospace">Standoff hole M3</text>
<rect x="26" y="641" width="10" height="8" fill="#aa44ff" rx="1"/>
<text x="40.0" y="648.0" font-size="8" text-anchor="start" fill="#cccccc" font-weight="normal" font-family="monospace">FC/ESC mount M3</text>
<rect x="26" y="652" width="10" height="8" fill="#cc4444" rx="1"/>
<text x="40.0" y="659.0" font-size="8" text-anchor="start" fill="#cccccc" font-weight="normal" font-family="monospace">Flywheel bay cutout</text>
<rect x="455" y="565" width="175" height="105" rx="6" fill="#0d0d1a" stroke="#333366" stroke-width="1"/>
<text x="542.0" y="581.0" font-size="9" text-anchor="middle" fill="#8888cc" font-weight="bold" font-family="monospace">SPECS</text>
<text x="463.0" y="593.0" font-size="8" text-anchor="start" fill="#8888aa" font-weight="normal" font-family="monospace">Outer diameter:</text>
<text x="623.0" y="593.0" font-size="8" text-anchor="end" fill="#eeeeff" font-weight="normal" font-family="monospace">400 mm</text>
<text x="463.0" y="604.0" font-size="8" text-anchor="start" fill="#8888aa" font-weight="normal" font-family="monospace">Ring width:</text>
<text x="623.0" y="604.0" font-size="8" text-anchor="end" fill="#eeeeff" font-weight="normal" font-family="monospace">45 mm</text>
<text x="463.0" y="615.0" font-size="8" text-anchor="start" fill="#8888aa" font-weight="normal" font-family="monospace">Hub diameter:</text>
<text x="623.0" y="615.0" font-size="8" text-anchor="end" fill="#eeeeff" font-weight="normal" font-family="monospace">110 mm</text>
<text x="463.0" y="626.0" font-size="8" text-anchor="start" fill="#8888aa" font-weight="normal" font-family="monospace">Flywheel bay:</text>
<text x="623.0" y="626.0" font-size="8" text-anchor="end" fill="#eeeeff" font-weight="normal" font-family="monospace">Ø112 mm</text>
<text x="463.0" y="637.0" font-size="8" text-anchor="start" fill="#8888aa" font-weight="normal" font-family="monospace">Motor radius:</text>
<text x="623.0" y="637.0" font-size="8" text-anchor="end" fill="#eeeeff" font-weight="normal" font-family="monospace">R 185 mm</text>
<text x="463.0" y="648.0" font-size="8" text-anchor="start" fill="#8888aa" font-weight="normal" font-family="monospace">Thickness:</text>
<text x="623.0" y="648.0" font-size="8" text-anchor="end" fill="#eeeeff" font-weight="normal" font-family="monospace">3 mm (PETG)</text>
<text x="463.0" y="659.0" font-size="8" text-anchor="start" fill="#8888aa" font-weight="normal" font-family="monospace">Motor bolt:</text>
<text x="623.0" y="659.0" font-size="8" text-anchor="end" fill="#eeeeff" font-weight="normal" font-family="monospace">M3 × 16mm pattern</text>
</svg>