<svg xmlns="http://www.w3.org/2000/svg" width="740" height="520" style="background:#1a1a2e">
<line x1="0" y1="0" x2="0" y2="520" stroke="#ffffff06" stroke-width="0.5"/>
<line x1="40" y1="0" x2="40" y2="520" stroke="#ffffff06" stroke-width="0.5"/>
<line x1="80" y1="0" x2="80" y2="520" stroke="#ffffff06" stroke-width="0.5"/>
<line x1="120" y1="0" x2="120" y2="520" stroke="#ffffff06" stroke-width="0.5"/>
<line x1="160" y1="0" x2="160" y2="520" stroke="#ffffff06" stroke-width="0.5"/>
<line x1="200" y1="0" x2="200" y2="520" stroke="#ffffff06" stroke-width="0.5"/>
<line x1="240" y1="0" x2="240" y2="520" stroke="#ffffff06" stroke-width="0.5"/>
<line x1="280" y1="0" x2="280" y2="520" stroke="#ffffff06" stroke-width="0.5"/>
<line x1="320" y1="0" x2="320" y2="520" stroke="#ffffff06" stroke-width="0.5"/>
<line x1="360" y1="0" x2="360" y2="520" stroke="#ffffff06" stroke-width="0.5"/>
<line x1="400" y1="0" x2="400" y2="520" stroke="#ffffff06" stroke-width="0.5"/>
<line x1="440" y1="0" x2="440" y2="520" stroke="#ffffff06" stroke-width="0.5"/>
<line x1="480" y1="0" x2="480" y2="520" stroke="#ffffff06" stroke-width="0.5"/>
<line x1="520" y1="0" x2="520" y2="520" stroke="#ffffff06" stroke-width="0.5"/>
<line x1="560" y1="0" x2="560" y2="520" stroke="#ffffff06" stroke-width="0.5"/>
<line x1="600" y1="0" x2="600" y2="520" stroke="#ffffff06" stroke-width="0.5"/>
<line x1="640" y1="0" x2="640" y2="520" stroke="#ffffff06" stroke-width="0.5"/>
<line x1="680" y1="0" x2="680" y2="520" stroke="#ffffff06" stroke-width="0.5"/>
<line x1="720" y1="0" x2="720" y2="520" stroke="#ffffff06" stroke-width="0.5"/>
<line x1="0" y1="0" x2="740" y2="0" stroke="#ffffff06" stroke-width="0.5"/>
<line x1="0" y1="40" x2="740" y2="40" stroke="#ffffff06" stroke-width="0.5"/>
<line x1="0" y1="80" x2="740" y2="80" stroke="#ffffff06" stroke-width="0.5"/>
<line x1="0" y1="120" x2="740" y2="120" stroke="#ffffff06" stroke-width="0.5"/>
<line x1="0" y1="160" x2="740" y2="160" stroke="#ffffff06" stroke-width="0.5"/>
<line x1="0" y1="200" x2="740" y2="200" stroke="#ffffff06" stroke-width="0.5"/>
<line x1="0" y1="240" x2="740" y2="240" stroke="#ffffff06" stroke-width="0.5"/>
<line x1="0" y1="280" x2="740" y2="280" stroke="#ffffff06" stroke-width="0.5"/>
<line x1="0" y1="320" x2="740" y2="320" stroke="#ffffff06" stroke-width="0.5"/>
<line x1="0" y1="360" x2="740" y2="360" stroke="#ffffff06" stroke-width="0.5"/>
<line x1="0" y1="400" x2="740" y2="400" stroke="#ffffff06" stroke-width="0.5"/>
<line x1="0" y1="440" x2="740" y2="440" stroke="#ffffff06" stroke-width="0.5"/>
<line x1="0" y1="480" x2="740" y2="480" stroke="#ffffff06" stroke-width="0.5"/>
<text x="370.0" y="28.0" font-size="16" text-anchor="middle" fill="#e0e0ff" font-weight="bold" font-family="monospace">FlyGimbal — Parts Sheet v0.1</text>
<text x="370.0" y="46.0" font-size="10" text-anchor="middle" fill="#8888bb" font-weight="normal" font-family="monospace">All fabrication files  |  STL + STEP available</text>
<rect x="14.0" y="62.0" width="168.0" height="195.0" rx="2" fill="#0d0d1a" stroke="#44ccff" stroke-width="2"/>
<text x="98.0" y="78.0" font-size="11" text-anchor="middle" fill="#44ccff" font-weight="bold" font-family="monospace">Servo Mount</text>
<text x="98.0" y="91.0" font-size="8" text-anchor="middle" fill="#8888aa" font-weight="normal" font-family="monospace">gimbal_servo_mount_v01</text>
<text x="98.0" y="249.0" font-size="8" text-anchor="middle" fill="#ffcc44" font-weight="normal" font-family="monospace">Print: PETG  5 walls</text>
<rect x="78.0" y="127.0" width="40.0" height="60.0" rx="3" fill="#1a2a3a" stroke="#44ccff" stroke-width="1.5"/>
<rect x="70.0" y="123.0" width="56.0" height="8.0" rx="1" fill="#1a2a3a" stroke="#44ccff" stroke-width="1"/>
<rect x="70.0" y="179.0" width="56.0" height="8.0" rx="1" fill="#1a2a3a" stroke="#44ccff" stroke-width="1"/>
<circle cx="76.0" cy="127.0" r="2.5" fill="#ffcc44"/>
<circle cx="120.0" cy="127.0" r="2.5" fill="#ffcc44"/>
<circle cx="76.0" cy="183.0" r="2.5" fill="#ffcc44"/>
<circle cx="120.0" cy="183.0" r="2.5" fill="#ffcc44"/>
<circle cx="98.0" cy="157.0" r="5.0" fill="none" stroke="#ff6644" stroke-width="1.5"/>
<text x="98.0" y="162.0" font-size="9" text-anchor="middle" fill="#ff6644" font-weight="normal" font-family="monospace">⊕</text>
<circle cx="84.0" cy="195.0" r="2.5" fill="#aa44ff"/>
<circle cx="112.0" cy="195.0" r="2.5" fill="#aa44ff"/>
<text x="98.0" y="235.0" font-size="8" text-anchor="middle" fill="#aaaacc" font-weight="normal" font-family="monospace">36×18×34mm</text>
<text x="98.0" y="245.0" font-size="7.5" text-anchor="middle" fill="#888" font-weight="normal" font-family="monospace">Savöx SH-0257MG</text>
<rect x="196.0" y="62.0" width="168.0" height="195.0" rx="2" fill="#0d0d1a" stroke="#44ff88" stroke-width="2"/>
<text x="280.0" y="78.0" font-size="11" text-anchor="middle" fill="#44ff88" font-weight="bold" font-family="monospace">Motor Plate</text>
<text x="280.0" y="91.0" font-size="8" text-anchor="middle" fill="#8888aa" font-weight="normal" font-family="monospace">gimbal_motor_plate_v01</text>
<text x="280.0" y="249.0" font-size="8" text-anchor="middle" fill="#ffcc44" font-weight="normal" font-family="monospace">Print: PETG  or 2mm Al</text>
<rect x="255.0" y="137.0" width="50.0" height="50.0" rx="2" fill="#1a3a2a" stroke="#44ff88" stroke-width="1.5"/>
<circle cx="268.0" cy="150.0" r="2.5" fill="#ffcc44"/>
<circle cx="268.0" cy="174.0" r="2.5" fill="#ffcc44"/>
<circle cx="292.0" cy="150.0" r="2.5" fill="#ffcc44"/>
<circle cx="292.0" cy="174.0" r="2.5" fill="#ffcc44"/>
<circle cx="280.0" cy="162.0" r="8.0" fill="#0d0d1a" stroke="#44ff88" stroke-width="1"/>
<circle cx="280.0" cy="140.0" r="3" fill="#ff6644"/>
<circle cx="294.0" cy="140.0" r="2.5" fill="#ff9944"/>
<text x="280.0" y="235.0" font-size="8" text-anchor="middle" fill="#aaaacc" font-weight="normal" font-family="monospace">42×42×4mm</text>
<text x="280.0" y="245.0" font-size="7.5" text-anchor="middle" fill="#888" font-weight="normal" font-family="monospace">M3 × 16mm pattern</text>
<rect x="378.0" y="62.0" width="168.0" height="195.0" rx="2" fill="#0d0d1a" stroke="#ffaa44" stroke-width="2"/>
<text x="462.0" y="78.0" font-size="11" text-anchor="middle" fill="#ffaa44" font-weight="bold" font-family="monospace">Flywheel Rotor</text>
<text x="462.0" y="91.0" font-size="8" text-anchor="middle" fill="#8888aa" font-weight="normal" font-family="monospace">flywheel_rotor_v01</text>
<text x="462.0" y="249.0" font-size="8" text-anchor="middle" fill="#ffcc44" font-weight="normal" font-family="monospace">Machine: Al 6061-T6</text>
<rect x="422.0" y="134.0" width="15.0" height="56.0" rx="1" fill="#2a2010" stroke="#ffaa44" stroke-width="1.5"/>
<rect x="487.0" y="134.0" width="15.0" height="56.0" rx="1" fill="#2a2010" stroke="#ffaa44" stroke-width="1.5"/>
<rect x="437.0" y="154.0" width="50.0" height="16.0" rx="1" fill="#2a2010" stroke="#ffaa44" stroke-width="1"/>
<rect x="456.0" y="134.0" width="12.0" height="56.0" rx="1" fill="#0d0d1a" stroke="#ff6644" stroke-width="1"/>
<line x1="422.0" y1="194.0" x2="502.0" y2="194.0" stroke="#ffaa44" stroke-width="0.7"/>
<text x="462.0" y="204.0" font-size="8" text-anchor="middle" fill="#ffcc66" font-weight="normal" font-family="monospace">⌀80mm</text>
<line x1="422.0" y1="130.0" x2="422.0" y2="194.0" stroke="#ffaa44" stroke-width="0.7"/>
<text x="410.0" y="162.0" font-size="7" text-anchor="middle" fill="#ffcc66" font-weight="normal" font-family="monospace">15mm</text>
<text x="462.0" y="235.0" font-size="8" text-anchor="middle" fill="#aaaacc" font-weight="normal" font-family="monospace">Mass at rim: ~144g</text>
<text x="462.0" y="245.0" font-size="7.5" text-anchor="middle" fill="#888" font-weight="normal" font-family="monospace">I ≈ 1.76×10⁻⁴ kg·m²</text>
<rect x="560.0" y="62.0" width="168.0" height="195.0" rx="2" fill="#0d0d1a" stroke="#cc44ff" stroke-width="2"/>
<text x="644.0" y="78.0" font-size="11" text-anchor="middle" fill="#cc44ff" font-weight="bold" font-family="monospace">VESC Bracket</text>
<text x="644.0" y="91.0" font-size="8" text-anchor="middle" fill="#8888aa" font-weight="normal" font-family="monospace">vesc_mount_bracket_v01</text>
<text x="644.0" y="249.0" font-size="8" text-anchor="middle" fill="#ffcc44" font-weight="normal" font-family="monospace">Print: PETG  6 walls</text>
<rect x="614.0" y="127.0" width="8.0" height="70.0" rx="1" fill="#1a0a2a" stroke="#cc44ff" stroke-width="1.5"/>
<rect x="614.0" y="189.0" width="50.0" height="8.0" rx="1" fill="#1a0a2a" stroke="#cc44ff" stroke-width="1.5"/>
<rect x="624.0" y="132.0" width="40.0" height="55.0" rx="2" fill="#0a1a0a" stroke="#44cc44" stroke-width="1"/>
<text x="644.0" y="152.0" font-size="9" text-anchor="middle" fill="#44cc44" font-weight="bold" font-family="monospace">VESC</text>
<text x="644.0" y="167.0" font-size="9" text-anchor="middle" fill="#44cc44" font-weight="normal" font-family="monospace">4.12</text>
<circle cx="616.0" cy="193.0" r="2.5" fill="#ffcc44"/>
<circle cx="662.0" cy="193.0" r="2.5" fill="#ffcc44"/>
<text x="644.0" y="235.0" font-size="8" text-anchor="middle" fill="#aaaacc" font-weight="normal" font-family="monospace">65×24×45mm</text>
<text x="644.0" y="245.0" font-size="7.5" text-anchor="middle" fill="#888" font-weight="normal" font-family="monospace">VESC 4.12 / 75×45mm PCB</text>
<rect x="14.0" y="271.0" width="167.5" height="78.0" rx="3" fill="#080810" stroke="#5566cc" stroke-width="1.2"/>
<text x="97.8" y="286.0" font-size="8.5" text-anchor="middle" fill="#5566cc" font-weight="bold" font-family="monospace">frame_bottom_v01</text>
<text x="97.8" y="299.0" font-size="8" text-anchor="middle" fill="#aaaacc" font-weight="normal" font-family="monospace">Disc frame Ø400mm</text>
<text x="97.8" y="313.0" font-size="7.5" text-anchor="middle" fill="#ffcc44" font-weight="normal" font-family="monospace">3mm PETG  5 walls  40% gyroid</text>
<text x="97.8" y="329.0" font-size="7" text-anchor="middle" fill="#555588" font-weight="normal" font-family="monospace">↑ previously generated</text>
<rect x="195.5" y="271.0" width="167.5" height="78.0" rx="3" fill="#080810" stroke="#5566cc" stroke-width="1.2"/>
<text x="279.2" y="286.0" font-size="8.5" text-anchor="middle" fill="#5566cc" font-weight="bold" font-family="monospace">frame_top_v01</text>
<text x="279.2" y="299.0" font-size="8" text-anchor="middle" fill="#aaaacc" font-weight="normal" font-family="monospace">Electronics tray</text>
<text x="279.2" y="313.0" font-size="7.5" text-anchor="middle" fill="#ffcc44" font-weight="normal" font-family="monospace">2mm PETG  4 walls  30% gyroid</text>
<text x="279.2" y="329.0" font-size="7" text-anchor="middle" fill="#555588" font-weight="normal" font-family="monospace">↑ previously generated</text>
<rect x="377.0" y="271.0" width="167.5" height="78.0" rx="3" fill="#080810" stroke="#ff8844" stroke-width="1.2"/>
<text x="460.8" y="286.0" font-size="8.5" text-anchor="middle" fill="#ff8844" font-weight="bold" font-family="monospace">landing_leg_v01</text>
<text x="460.8" y="299.0" font-size="8" text-anchor="middle" fill="#aaaacc" font-weight="normal" font-family="monospace">Landing bumper ×4</text>
<text x="460.8" y="313.0" font-size="7.5" text-anchor="middle" fill="#ffcc44" font-weight="normal" font-family="monospace">TPU  3 walls  20%  25mm/s</text>
<text x="460.8" y="329.0" font-size="7" text-anchor="middle" fill="#555588" font-weight="normal" font-family="monospace">↑ previously generated</text>
<rect x="558.5" y="271.0" width="167.5" height="78.0" rx="3" fill="#080810" stroke="#cc4444" stroke-width="1.2"/>
<text x="642.2" y="286.0" font-size="8.5" text-anchor="middle" fill="#cc4444" font-weight="bold" font-family="monospace">flywheel_boss_v01</text>
<text x="642.2" y="299.0" font-size="8" text-anchor="middle" fill="#aaaacc" font-weight="normal" font-family="monospace">Flywheel mount</text>
<text x="642.2" y="313.0" font-size="7.5" text-anchor="middle" fill="#ffcc44" font-weight="normal" font-family="monospace">PETG  6 walls  60% cubic</text>
<text x="642.2" y="329.0" font-size="7" text-anchor="middle" fill="#555588" font-weight="normal" font-family="monospace">↑ previously generated</text>
<text x="370.0" y="508.0" font-size="9" text-anchor="middle" fill="#555588" font-weight="normal" font-family="monospace">Total: 16 fabrication files  (8 STL + 8 STEP)  |  FlyGimbal v0.1</text>
</svg>